<svg width="80" height="80" viewBox="0 0 80 80" fill="none" xmlns="http://www.w3.org/2000/svg">
<circle cx="40" cy="40" r="40" fill="#15BE53"/>
<circle cx="40" cy="40" r="39" stroke="white" stroke-opacity="0.7" stroke-width="2"/>
<path d="M35 21.6666C35.9205 21.6666 36.6667 22.4128 36.6667 23.3333V25.8333C36.6667 26.7538 35.9205 27.5 35 27.5C34.0795 27.5 33.3333 26.7538 33.3333 25.8333V23.3333C33.3333 22.4128 34.0795 21.6666 35 21.6666Z" fill="white"/>
<path d="M25.4882 25.4881C26.139 24.8372 27.1943 24.8372 27.8452 25.4881L29.6129 27.2559C30.2638 27.9068 30.2638 28.962 29.6129 29.6129C28.9621 30.2638 27.9068 30.2638 27.2559 29.6129L25.4882 27.8451C24.8373 27.1943 24.8373 26.139 25.4882 25.4881Z" fill="white"/>
<path d="M29.6129 42.8451C30.2638 42.1943 30.2638 41.139 29.6129 40.4881C28.9621 39.8372 27.9068 39.8372 27.2559 40.4881L25.4882 42.2559C24.8373 42.9068 24.8373 43.962 25.4882 44.6129C26.139 45.2638 27.1943 45.2638 27.8452 44.6129L29.6129 42.8451Z" fill="white"/>
<path d="M44.6129 25.4881C45.2638 26.139 45.2638 27.1943 44.6129 27.8451L42.8452 29.6129C42.1943 30.2638 41.139 30.2638 40.4882 29.6129C39.8373 28.962 39.8373 27.9068 40.4882 27.2559L42.2559 25.4881C42.9068 24.8372 43.9621 24.8372 44.6129 25.4881Z" fill="white"/>
<path d="M23.3333 33.3333C22.4129 33.3333 21.6667 34.0795 21.6667 35C21.6667 35.9204 22.4129 36.6666 23.3333 36.6666H25.8333C26.7538 36.6666 27.5 35.9204 27.5 35C27.5 34.0795 26.7538 33.3333 25.8333 33.3333H23.3333Z" fill="white"/>
<path d="M34.6772 32.5801C34.0822 32.3887 33.4301 32.5462 32.9882 32.9882C32.5463 33.4301 32.3887 34.0822 32.5801 34.6771L39.432 55.9734C39.6099 56.5263 40.0627 56.9466 40.6272 57.083C41.1916 57.2194 41.7864 57.0521 42.1971 56.6415L45.8334 53.0052L50.6734 57.8452C50.9859 58.1577 51.4099 58.3333 51.8519 58.3333C52.2939 58.3333 52.7178 58.1577 53.0304 57.8452L57.8452 53.0304C58.1578 52.7178 58.3334 52.2939 58.3334 51.8519C58.3334 51.4098 58.1578 50.9859 57.8452 50.6733L53.0052 45.8333L56.6415 42.197C57.0522 41.7864 57.2194 41.1916 57.0831 40.6271C56.9467 40.0626 56.5263 39.6098 55.9735 39.4319L34.6772 32.5801Z" fill="white"/>
</svg>
