<svg width="80" height="80" viewBox="0 0 80 80" fill="none" xmlns="http://www.w3.org/2000/svg">
<circle cx="40" cy="40" r="40" fill="#5951FF"/>
<circle cx="40" cy="40" r="39" stroke="white" stroke-opacity="0.7" stroke-width="2"/>
<path fill-rule="evenodd" clip-rule="evenodd" d="M45.4022 21.6666H34.5978C33.2562 21.6666 32.1489 21.6666 31.247 21.7403C30.3101 21.8168 29.449 21.9811 28.6401 22.3933C27.3857 23.0324 26.3658 24.0523 25.7266 25.3067C25.3145 26.1156 25.1502 26.9768 25.0737 27.9136C25 28.8156 25 29.9228 25 31.2644V48.7355C25 50.0771 25 51.1844 25.0737 52.0863C25.1502 53.0232 25.3145 53.8843 25.7266 54.6932C26.3658 55.9476 27.3857 56.9675 28.6401 57.6067C29.449 58.0188 30.3101 58.1831 31.247 58.2596C32.1489 58.3333 33.2562 58.3333 34.5978 58.3333H41.6912C41.7403 58.3333 41.7649 58.3333 41.7793 58.3328C42.4938 58.308 42.8474 57.4542 42.3598 56.9315C42.3499 56.9209 42.3325 56.9036 42.2978 56.8688C40.3452 54.9162 40.3452 51.7504 42.2978 49.7978C44.1826 47.913 47.1977 47.8475 49.161 49.6012L53.1311 45.6311C53.4417 45.3205 53.783 45.0593 54.1452 44.8476C54.5155 44.631 54.7006 44.5228 54.7881 44.4249C54.8797 44.3223 54.9173 44.2568 54.9596 44.1259C55 44.0009 55 43.8366 55 43.5078V31.2644C55 29.9228 55 28.8156 54.9263 27.9136C54.8498 26.9768 54.6855 26.1156 54.2734 25.3067C53.6342 24.0523 52.6144 23.0324 51.3599 22.3933C50.551 21.9811 49.6899 21.8168 48.753 21.7403C47.8511 21.6666 46.7438 21.6666 45.4022 21.6666ZM33.3333 35C32.4129 35 31.6667 35.7462 31.6667 36.6666C31.6667 37.5871 32.4129 38.3333 33.3333 38.3333H43.3333C44.2538 38.3333 45 37.5871 45 36.6666C45 35.7462 44.2538 35 43.3333 35H33.3333ZM31.6667 43.3333C31.6667 42.4128 32.4129 41.6666 33.3333 41.6666H36.6667C37.5871 41.6666 38.3333 42.4128 38.3333 43.3333C38.3333 44.2538 37.5871 45 36.6667 45H33.3333C32.4129 45 31.6667 44.2538 31.6667 43.3333ZM33.3333 28.3333C32.4129 28.3333 31.6667 29.0795 31.6667 30C31.6667 30.9204 32.4129 31.6666 33.3333 31.6666H46.6667C47.5871 31.6666 48.3333 30.9204 48.3333 30C48.3333 29.0795 47.5871 28.3333 46.6667 28.3333H33.3333Z" fill="white"/>
<path d="M57.8452 50.3451C58.4961 49.6943 58.4961 48.639 57.8452 47.9881C57.1943 47.3372 56.139 47.3372 55.4882 47.9881L49.1667 54.3096L47.0118 52.1548C46.361 51.5039 45.3057 51.5039 44.6548 52.1548C44.0039 52.8057 44.0039 53.8609 44.6548 54.5118L47.9882 57.8451C48.639 58.496 49.6943 58.496 50.3452 57.8451L57.8452 50.3451Z" fill="white"/>
</svg>
