<svg width="80" height="80" viewBox="0 0 80 80" fill="none" xmlns="http://www.w3.org/2000/svg">
<circle cx="40" cy="40" r="40" fill="#FBB817"/>
<circle cx="40" cy="40" r="39" stroke="white" stroke-opacity="0.7" stroke-width="2"/>
<path d="M49.7309 23.3334H30.2691C29.3905 23.3333 28.6325 23.3333 28.0083 23.3843C27.3494 23.4382 26.694 23.557 26.0634 23.8783C25.1226 24.3577 24.3577 25.1226 23.8783 26.0634C23.557 26.6941 23.4381 27.3494 23.3843 28.0083C23.3333 28.6326 23.3333 29.3905 23.3333 30.2691V30.6667C23.3333 31.6001 23.3333 32.0668 23.515 32.4234C23.6748 32.737 23.9297 32.9919 24.2433 33.1517C24.5998 33.3334 25.0666 33.3334 26 33.3334H54C54.9334 33.3334 55.4001 33.3334 55.7566 33.1517C56.0702 32.9919 56.3252 32.737 56.485 32.4234C56.6666 32.0668 56.6666 31.6001 56.6666 30.6667V30.2691C56.6667 29.3905 56.6667 28.6326 56.6157 28.0083C56.5619 27.3494 56.443 26.6941 56.1217 26.0634C55.6423 25.1226 54.8774 24.3577 53.9366 23.8783C53.306 23.557 52.6506 23.4382 51.9917 23.3843C51.3674 23.3333 50.6094 23.3333 49.7309 23.3334Z" fill="white"/>
<path d="M56.6666 39.3334C56.6666 38.4 56.6666 37.9332 56.485 37.5767C56.3252 37.2631 56.0702 37.0082 55.7566 36.8484C55.4001 36.6667 54.9334 36.6667 54 36.6667H39.3333C38.3999 36.6667 37.9332 36.6667 37.5767 36.8484C37.2631 37.0082 37.0081 37.2631 36.8483 37.5767C36.6666 37.9332 36.6666 38.4 36.6666 39.3334L36.6666 54C36.6666 54.9335 36.6666 55.4002 36.8483 55.7567C37.0081 56.0703 37.2631 56.3253 37.5767 56.4851C37.9332 56.6667 38.3999 56.6667 39.3333 56.6667H49.7309C50.6095 56.6667 51.3674 56.6668 51.9917 56.6158C52.6506 56.5619 53.306 56.4431 53.9366 56.1217C54.8774 55.6424 55.6423 54.8775 56.1217 53.9367C56.443 53.306 56.5619 52.6507 56.6157 51.9918C56.6667 51.3675 56.6667 50.6096 56.6666 49.731V39.3334Z" fill="white"/>
<path d="M30.6666 56.6667C31.6001 56.6667 32.0668 56.6667 32.4233 56.4851C32.7369 56.3253 32.9919 56.0703 33.1517 55.7567C33.3333 55.4002 33.3333 54.9335 33.3333 54L33.3333 39.3334C33.3333 38.4 33.3333 37.9332 33.1517 37.5767C32.9919 37.2631 32.7369 37.0082 32.4233 36.8484C32.0668 36.6667 31.6001 36.6667 30.6666 36.6667H26C25.0666 36.6667 24.5998 36.6667 24.2433 36.8484C23.9297 37.0082 23.6748 37.2631 23.515 37.5767C23.3333 37.9332 23.3333 38.4 23.3333 39.3334V49.731C23.3333 50.6095 23.3333 51.3675 23.3843 51.9918C23.4381 52.6507 23.557 53.306 23.8783 53.9367C24.3577 54.8775 25.1226 55.6424 26.0634 56.1217C26.694 56.4431 27.3494 56.5619 28.0083 56.6158C28.6325 56.6668 29.3905 56.6667 30.269 56.6667H30.6666Z" fill="white"/>
</svg>
