<svg width="80" height="80" viewBox="0 0 80 80" fill="none" xmlns="http://www.w3.org/2000/svg">
<circle cx="40" cy="40" r="40" fill="#36B3FA"/>
<circle cx="40" cy="40" r="39" stroke="white" stroke-opacity="0.7" stroke-width="2"/>
<path fill-rule="evenodd" clip-rule="evenodd" d="M41.7803 29.6808C41.9565 28.7774 42.8318 28.1879 43.7353 28.3642C45.6887 28.7453 47.484 29.7007 48.8914 31.108C50.2987 32.5154 51.2541 34.3107 51.6353 36.2642C51.8115 37.1676 51.222 38.0429 50.3186 38.2191C49.4152 38.3954 48.5399 37.8059 48.3636 36.9025C48.1095 35.6002 47.4726 34.4033 46.5344 33.4651C45.5961 32.5268 44.3993 31.8899 43.0969 31.6358C42.1935 31.4595 41.604 30.5843 41.7803 29.6808Z" fill="white"/>
<path fill-rule="evenodd" clip-rule="evenodd" d="M41.7596 23.1493C41.8613 22.2344 42.6853 21.5752 43.6001 21.6768C47.358 22.0943 50.8623 23.7772 53.5376 26.4491C56.2129 29.121 57.9001 32.6232 58.3223 36.3805C58.4251 37.2953 57.7669 38.1201 56.8522 38.2229C55.9375 38.3257 55.1126 37.6675 55.0099 36.7528C54.6721 33.7468 53.3223 30.9451 51.1821 28.8076C49.0418 26.6701 46.2384 25.3238 43.2321 24.9898C42.3172 24.8882 41.658 24.0641 41.7596 23.1493Z" fill="white"/>
<path fill-rule="evenodd" clip-rule="evenodd" d="M30.5626 49.5869C26.5061 45.5304 23.5564 40.4788 21.9887 34.9634C21.7429 34.0984 21.5522 33.4276 21.5495 32.5078C21.5464 31.4565 21.8889 30.1394 22.4038 29.2228C23.2892 27.6466 25.1905 25.6265 26.8327 24.7958C28.2516 24.0782 29.9273 24.0782 31.3462 24.7958C32.7389 25.5003 34.3366 27.131 35.1848 28.4356C36.2622 30.0928 36.2622 32.2292 35.1848 33.8865C34.896 34.3305 34.4845 34.7414 34.0067 35.2183C33.8579 35.3669 33.6942 35.4742 33.8029 35.7007C34.8826 37.9495 36.3551 40.0588 38.2229 41.9266C40.0907 43.7944 42.2 45.2669 44.4488 46.3466C44.6817 46.4584 44.7771 46.2971 44.9312 46.1428C45.4081 45.665 45.819 45.2535 46.263 44.9648C47.9203 43.8873 50.0567 43.8873 51.714 44.9648C53.0185 45.813 54.6492 47.4106 55.3537 48.8033C56.0713 50.2222 56.0713 51.8979 55.3537 53.3168C54.5292 54.9467 52.5257 56.8475 50.9267 57.7457C50.0101 58.2606 48.693 58.6031 47.6417 58.6C46.7219 58.5973 46.0511 58.4066 45.1861 58.1608C39.6707 56.5933 34.6191 53.6434 30.5626 49.5869Z" fill="white"/>
</svg>
