<svg width="20" height="23" viewBox="0 0 20 23" fill="none" xmlns="http://www.w3.org/2000/svg">
<path fill-rule="evenodd" clip-rule="evenodd" d="M9.99998 3.83337C4.93737 3.83337 0.833313 7.93743 0.833313 13C0.833313 18.0627 4.93737 22.1667 9.99998 22.1667C15.0626 22.1667 19.1666 18.0627 19.1666 13C19.1666 7.93743 15.0626 3.83337 9.99998 3.83337ZM14.3392 11.0893C14.6647 10.7639 14.6647 10.2362 14.3392 9.91079C14.0138 9.58535 13.4862 9.58535 13.1607 9.91079L8.74998 14.3215L6.83924 12.4108C6.5138 12.0853 5.98616 12.0853 5.66072 12.4108C5.33529 12.7362 5.33529 13.2639 5.66072 13.5893L8.16072 16.0893C8.48616 16.4147 9.0138 16.4147 9.33924 16.0893L14.3392 11.0893Z" fill="#5951FF"/>
</svg>
